<svg width="18" height="32" viewBox="0 0 18 32" fill="none" xmlns="http://www.w3.org/2000/svg">
<path d="M13 5.33331H17C17.3682 5.33331 17.6667 5.03481 17.6667 4.66663V0.666625C17.6667 0.2985 17.3682 0 17 0H13C8.95175 0.0044375 5.67106 3.28506 5.66669 7.33331V12H1C0.631813 12 0.333313 12.2985 0.333313 12.6667V16.6667C0.333313 17.0349 0.631813 17.3334 1 17.3334H5.66669V31.3334C5.66669 31.7016 5.96519 32.0001 6.33337 32.0001H10.3334C10.7016 32.0001 11.0001 31.7016 11.0001 31.3334V17.3334H15.6667C15.9536 17.3332 16.2081 17.1495 16.2987 16.8774L17.6321 12.8774C17.7484 12.5281 17.5596 12.1506 17.2102 12.0342C17.1425 12.0116 17.0715 12.0001 17.0001 12H11.0001V7.33331C11 6.22875 11.8954 5.33331 13 5.33331Z" fill="#0075FF"/>
</svg>
