<svg width="36" height="36" viewBox="0 0 36 36" fill="none" xmlns="http://www.w3.org/2000/svg">
<path d="M29.5805 31.69C26.4587 34.3267 22.4087 36.0001 18.0001 36.0001C11.4399 36.0001 5.68125 32.3861 2.55945 27.1126L3.72818 21.7252L8.90867 20.7634C10.111 24.6446 13.7391 27.4923 18.0001 27.4923C20.0672 27.4923 21.9868 26.8384 23.5688 25.6783L28.5469 26.4376L29.5805 31.69Z" fill="#59C36A"/>
<path d="M29.5805 31.6897L28.5469 26.4374L23.5688 25.678C21.9867 26.8381 20.0671 27.492 18 27.492V35.9999C22.4087 35.9999 26.4586 34.3264 29.5805 31.6897Z" fill="#00A66C"/>
<path d="M8.50781 18C8.50781 18.9702 8.65547 19.8983 8.90859 20.7632L2.55938 27.1125C0.977344 24.4546 0 21.3327 0 18C0 14.6671 0.977344 11.5453 2.55938 8.88745L7.65513 9.76446L8.90859 15.2367C8.65547 16.1014 8.50781 17.0296 8.50781 18Z" fill="#FFDA2D"/>
<path d="M36 18C36 23.4843 33.4618 28.3992 29.5805 31.6898L23.5688 25.6781C24.7921 24.7921 25.8258 23.6109 26.5008 22.2188H18C17.4093 22.2188 16.9453 21.7546 16.9453 21.1641V14.8359C16.9453 14.2452 17.4093 13.7812 18 13.7812H34.65C35.1562 13.7812 35.5992 14.1398 35.6836 14.646C35.8945 15.743 36 16.882 36 18Z" fill="#4086F4"/>
<path d="M26.5009 22.2188C25.8259 23.6109 24.7921 24.7921 23.5688 25.6781L29.5805 31.6898C33.4618 28.3992 36 23.4844 36 18C36 16.882 35.8945 15.743 35.6835 14.646C35.5992 14.1398 35.1562 13.7812 34.6499 13.7812H18V22.2188H26.5009Z" fill="#4175DF"/>
<path d="M29.8759 5.02727C29.8969 5.32259 29.7704 5.59687 29.5805 5.80774L25.0665 10.3007C24.708 10.6804 24.1173 10.7226 23.6955 10.4062C22.0289 9.16172 20.0672 8.50781 18.0001 8.50781C13.7391 8.50781 10.111 11.3554 8.90867 15.2367L2.55945 8.8875C5.68125 3.61406 11.4399 0 18.0001 0C22.1977 0 26.2899 1.54688 29.4962 4.2468C29.7282 4.43672 29.8548 4.73196 29.8759 5.02727Z" fill="#FF641A"/>
<path d="M23.6953 10.4062C24.1172 10.7227 24.7077 10.6804 25.0663 10.3007L29.5804 5.80774C29.7703 5.59687 29.8969 5.32266 29.8757 5.02727C29.8546 4.73189 29.7281 4.43672 29.496 4.2468C26.2898 1.54688 22.1977 0 18 0V8.50781C20.0671 8.50781 22.0288 9.16172 23.6953 10.4062Z" fill="#F03800"/>
</svg>
